<?xml version="1.0" encoding="utf-8"?>
<!-- Generator: Adobe Illustrator 25.4.1, SVG Export Plug-In . SVG Version: 6.00 Build 0)  -->
<svg version="1.1" id="Layer_1" xmlns="http://www.w3.org/2000/svg" xmlns:xlink="http://www.w3.org/1999/xlink" x="0px" y="0px"
	 viewBox="0 0 24 24" style="enable-background:new 0 0 24 24;" xml:space="preserve">
<style type="text/css">
	.st0{fill:none;}
	.st1{fill:#5FAD56;}
</style>
<path class="st0" d="M0,0h24v24H0V0z"/>
<polygon class="st0" points="18,7.5 9.1,7.5 6.9,10.8 18,10.8 "/>
<path class="st1" d="M19,2.5c0-0.6-0.4-1-1-1h-5c-0.6,0-1,0.4-1,1v2h7V2.5z"/>
<path class="st1" d="M19,5.5H8l-4,6v10c0,0.6,0.4,1,1,1h14c0.6,0,1-0.4,1-1v-15C20,5.9,19.6,5.5,19,5.5z M18,10.8H6.9h0l2.2-3.2H18
	V10.8z"/>
</svg>
