<?xml version="1.0" encoding="utf-8"?>
<!-- Generator: Adobe Illustrator 25.4.1, SVG Export Plug-In . SVG Version: 6.00 Build 0)  -->
<svg version="1.1" id="Layer_1" xmlns="http://www.w3.org/2000/svg" xmlns:xlink="http://www.w3.org/1999/xlink" x="0px" y="0px"
	 viewBox="0 0 24 24" style="enable-background:new 0 0 24 24;" xml:space="preserve">
<style type="text/css">
	.st0{fill:none;}
	.st1{fill:#5FAD56;}
</style>
<path class="st0" d="M0,0h24v24H0V0z"/>
<path class="st1" d="M19,2.5c0-0.6-0.4-1-1-1h-5c-0.6,0-1,0.4-1,1v2h7V2.5z"/>
<g>
	<rect x="8" y="12.5" class="st0" width="2" height="1.5"/>
	<polygon class="st0" points="8,12.5 10,12.5 10,14 18,14 18,7.5 9.1,7.5 6,12.1 6,14 8,14 	"/>
	<g>
		<polygon class="st0" points="10,14 18,14 18,7.5 9.1,7.5 6,12.1 6,14 8,14 		"/>
		<rect x="19" y="14" class="st0" width="0" height="6.8"/>
		<path class="st1" d="M19,5.5H8l-4,6v10c0,0.6,0.4,1,1,1h14c0.6,0,1-0.4,1-1v-15C20,5.9,19.6,5.5,19,5.5z M6,12.1l3.1-4.6H18V14h-8
			H8H6h0V12.1z"/>
	</g>
</g>
</svg>
